PathFileType	4	(X/Y/Z)	C:/Users/beibeiliu/ov580/test_trc/User1\sequence.8_training_dense_right.trc
DataRate	CameraRate	NumFrames	NumMarkers	Units	OrigDataRate	OrigDataStartFrame	OrigNumFrames
120	120	12	19	mm	120	1	289
Frame#	Time	ThumbCMC			ThumbMCP			ThumbIP			ThumbTip			IndexMCP			IndexPIP			IndexTip			MiddleMCP			MiddlePIP			MiddleTip			RingMCP			RingPIP			RingTip			PinkyMCP			PinkyPIP			PinkyTip			BackHand1			BackHand2			BackHand3	
		X0	Y0	Z0	X1	Y1	Z1	X2	Y2	Z2	X3	Y3	Z3	X4	Y4	Z4	X5	Y5	Z5	X6	Y6	Z6	X7	Y7	Z7	X8	Y8	Z8	X9	Y9	Z9	X10	Y10	Z10	X11	Y11	Z11	X12	Y12	Z12	X13	Y13	Z13	X14	Y14	Z14	X15	Y15	Z15	X16	Y16	Z16	X17	Y17	Z17	X18	Y18	Z18	
0	0	123.991	86.1874	34.5126	95.9004	70.8838	27.997	75.5957	59.6603	13.4335	57.6756	52.3158	7.54045	134.026	69.5419	-49.4508	131.392	61.789	-77.2432	128.627	58.0506	-98.1108	165.613	75.2206	-57.703	162.002	70.4634	-84.6183	167.226	66.4569	-114.312	189.946	70.7505	-49.6212	195.185	68.3659	-76.0614	203.24	65.808	-100.513	214.161	61.2244	-26.8372	227.833	57.8831	-39.8518	241.184	62.3252	-54.2596	184.991	90.2449	-1.45943	185.443	108.175	29.0721	151.205	100.695	13.3766	
1	0.00833333	120.63	83.7885	30.7078	99.6728	69.1833	28.0753	76.1526	58.2408	11.7329	56.388	52.8701	11.4849	133.55	67.8024	-49.0399	128.857	62.2441	-76.2593	132.014	56.9975	-101.536	161.298	74.1357	-56.477	160.891	69.2851	-88.4725	166.241	66.0245	-116.12	187.157	70.0946	-52.0149	198.224	68.011	-72.1872	200.914	65.6021	-100.004	212.624	60.3579	-26.3329	228.028	57.261	-40.6503	239.474	60.9441	-59.5634	183.981	89.0582	-0.977772	184.981	106.304	29.2072	149.675	99.7309	10.3986	
2	0.0166667	120.309	85.305	35.7935	99.0284	67.5706	25.8718	75.3646	58.2844	12.9676	58.1369	51.5305	8.32257	134.093	67.1864	-49.4946	128.792	61.7244	-72.433	133.398	56.6962	-98.1629	161.56	73.2009	-61.5205	160.863	68.8094	-88.005	167.115	64.7904	-117.447	189.822	70.0262	-50.2104	194.08	67.4532	-72.6649	201.452	64.7179	-98.558	213.459	61.1215	-27.9192	226.602	56.3757	-38.4193	237.477	61.0436	-55.9214	184.733	88.8357	-2.14134	187.701	106.185	26.173	151.573	100.313	11.579	
3	0.025	118.9	84.1004	33.2263	97.7374	68.717	28.9212	75.7532	56.8645	11.4007	56.2079	50.6562	9.28927	132.179	67.51	-47.4653	128.964	60.619	-76.4912	134.626	56.4663	-99.718	165.815	73.373	-59.1928	165.368	68.1585	-88.6285	170.09	63.5619	-115.138	188.508	70.8435	-51.9414	196.095	68.4016	-76.2257	200.396	64.6003	-99.2223	212.936	61.6027	-26.5433	224.66	56.9807	-37.4446	241.213	61.543	-58.2694	181.895	90.3904	-2.55553	186.368	105.11	29.6645	147.814	97.9459	8.89329	
4	0.0333333	117.856	84.2868	31.8011	98.6661	67.9763	27.5296	76.2479	57.3513	12.763	56.7373	49.6991	8.20622	133.803	66.9586	-51.3205	129.011	61.5938	-73.2857	134.898	55.8129	-98.6996	161.388	73.5219	-55.8981	163.579	67.2243	-88.3796	167.11	63.9407	-113.381	187.688	69.8165	-46.7814	193.657	67.4136	-77.0557	200.958	65.4934	-100.38	213.235	61.3406	-23.128	227.742	57.4908	-41.1204	241.667	60.291	-58.5536	182.938	90.1389	0.899025	189.41	106.607	28.9057	153.616	99.0954	12.3216	
5	0.0416667	118.769	82.7131	31.0154	100.634	66.3454	26.452	80.1237	56.6264	15.8164	59.8826	49.4462	10.1093	131.323	65.8476	-49.4021	133.39	60.0854	-75.759	128.871	56.212	-101.035	164.267	73.13	-55.98	166.159	68.3561	-84.7706	166.786	63.7018	-111.772	187.589	69.367	-50.373	196.672	67.8705	-73.2187	198.928	63.6095	-96.7286	216.362	60.5598	-25.496	224.568	57.5513	-38.8992	243.45	62.5952	-58.2196	187.541	88.1193	-1.39986	186.938	104.07	26.8029	153.466	97.2643	8.68623	
6	0.05	121.045	82.4377	31.6217	97.6656	68.4637	28.3756	74.7207	57.9743	14.9502	57.0844	50.5689	12.6807	132.577	65.9718	-49.8854	128.114	60.3621	-75.8322	134.344	56.2069	-100.204	161.221	73.5268	-57.4634	163.341	68.074	-85.0135	167.027	63.9364	-113.806	191.484	70.5389	-49.8314	197.637	68.1297	-73.4449	202.288	64.7016	-96.3925	212.627	61.1366	-24.6051	229.106	56.8688	-38.6279	243.385	62.1963	-58.3855	183.69	90.5319	0.65745	184.389	105.022	28.8827	150.99	97.1551	9.47054	
7	0.0583333	120.17	84.4798	35.9589	97.4701	68.6552	28.1191	76.0868	57.9908	15.3397	56.1763	51.0255	10.6126	130.38	67.2156	-50.0757	131.195	59.993	-77.6021	131.805	57.0002	-102.569	163.166	73.1358	-58.9493	163.335	68.3085	-86.4647	169.738	65.0015	-117.69	191.976	70.1121	-50.1997	198.56	68.4425	-74.5348	199.08	65.3875	-96.8022	212.309	62.4325	-23.3117	224.411	58.085	-37.2747	241.697	64.4905	-55.1633	182.749	90.6403	-3.64786	184.815	106.972	30.4456	148.434	99.3654	12.276	
8	0.0666667	122.034	82.1197	31.5268	97.5926	68.1391	28.9917	78.816	57.4523	16.2559	58.0133	50.174	12.5909	132.483	66.2844	-50.7742	129.953	61.3749	-75.5358	133.59	57.0236	-97.674	163.698	73.8865	-57.3552	164.363	68.012	-88.2553	166.736	64.419	-111.37	188.002	71.6537	-46.6001	194.746	68.4106	-71.8917	201.283	66.2571	-99.0638	214.432	62.8887	-24.1496	225.191	58.0305	-39.8077	241.236	63.145	-52.1177	186.866	91.5348	-1.78732	187.795	105.782	27.9791	151.904	98.7184	13.6663	
9	0.075	120.251	84.9274	36.2344	97.2297	67.2788	29.0305	77.6035	57.9966	17.0588	56.7625	50.5447	11.2597	134.424	67.4627	-50.6241	128.573	61.4039	-71.7798	132.332	56.3189	-100.431	160.224	74.5923	-59.893	163.534	68.7886	-87.8086	165.352	65.8152	-112.014	188.991	72.0525	-46.6077	193.667	68.727	-71.8855	199.497	66.1422	-97.3304	216.486	63.0999	-23.2503	225.967	58.9303	-38.4007	238.094	65.0684	-55.8108	181.84	90.1476	1.56953	187.46	105.023	27.3784	153.472	100.994	13.8524	
10	0.0833333	122.45	84.0093	32.4105	95.0203	68.2058	27.0888	74.4352	57.4299	16.7687	56.6444	48.9386	10.0006	132.52	68.4383	-47.2392	128.485	61.1977	-76.1461	135.538	57.522	-98.3128	163.001	74.1606	-59.1726	166.065	70.2227	-84.2688	167.957	65.5345	-112.761	191.33	72.0545	-50.2443	195.657	69.8755	-72.7205	200.709	66.8355	-97.2193	217.125	62.7532	-23.1509	226.035	59.2771	-38.7881	241.346	65.8326	-58.2505	182.343	91.4337	2.60005	186.26	108.174	30.2474	152.736	99.0402	14.5989	
11	0.0916667	121.649	84.6203	36.5691	100.784	67.128	26.7107	74.634	56.0997	12.6414	54.3247	49.2252	8.92665	130.972	67.8122	-49.8122	131.168	62.2892	-76.1839	133.321	57.1189	-101.617	160.458	74.8108	-56.3234	164.626	70.667	-86.2714	164.917	66.8473	-113.724	190.541	72.9706	-49.8574	196.899	70.0543	-72.6503	200.371	66.8418	-99.8061	214.469	62.7455	-28.8202	228.716	60.0482	-40.8499	242.118	65.2532	-56.0827	184.578	90.4801	-2.71926	185.653	106.827	28.7707	148.605	97.7599	10.5216	
